# xmcd CD database file
#
# Track frame offsets:
#	150
#	21082
#	41982
#	62855
#
# Disc length: 1115 seconds
#
# Revision: 1
# Processed by: cddbd v1.5.1PL0 Copyright (c) Steve Scherf et al.
# Submitted via: CDex 1.51
#
DISCID=33045904
DTITLE=日給8000円 - 未来がなくても抱きしめて
DYEAR=2004
DGENRE=JPop
TTITLE0=未来がなくても抱きしめて
TTITLE1=未来がなくても抱きしめて~Versionムラカミ~
TTITLE2=未来がなくても抱きしめて~Versionナッキー~
TTITLE3=未来がなくても抱きしめて~カラオケ~
EXTD=YEAR: 2004
EXTT0=
EXTT1=
EXTT2=
EXTT3=
PLAYORDER=
